<?xml version="1.0" encoding="utf-8"?>
<!-- Generator: Adobe Illustrator 27.7.0, SVG Export Plug-In . SVG Version: 6.00 Build 0)  -->
<svg version="1.1" id="Layer_1" xmlns="http://www.w3.org/2000/svg" xmlns:xlink="http://www.w3.org/1999/xlink" x="0px" y="0px"
	 viewBox="0 0 1920 1080" style="enable-background:new 0 0 1920 1080;" xml:space="preserve">
<style type="text/css">
	.st0{fill:#FFFFFF;}
	.st1{fill:#030202;}
	.st2{fill:#030303;}
	.st3{fill:#010101;}
	.st4{fill:#BFBFBF;}
	.st5{fill:#7F7F7F;}
	.st6{fill:#ED1C24;}
	.st7{fill:#6D6E71;}
	.st8{fill:#FEFEFE;}
	.st9{fill:#6C6D70;}
	.st10{fill:#FDFDFD;}
	.st11{fill:#373739;}
	.st12{fill:#040404;}
	.st13{fill:#020202;}
</style>
<g>
	<path class="st0" d="M1801.93,1080c-561.28,0-1122.57,0-1683.85,0c0-360,0-720,0-1080c561.28,0,1122.57,0,1683.85,0
		C1801.93,360,1801.93,720,1801.93,1080z M762.63,62.38c-38.31,0-76.62,0-115.09,0c0,7.13,0,13.93,0,21c2.13,0,4.1-0.05,6.07,0.01
		c5.48,0.15,11.02-0.03,16.42,0.71c2.33,0.32,5.68,2.14,6.32,4.03c1.34,3.96,1.56,8.43,1.57,12.69c0.1,40.61,0.07,81.22,0.03,121.83
		c0,2.96-0.21,5.95-0.63,8.88c-0.69,4.78-3.51,7.21-8.53,7.71c-0.5,0.05-1,0.12-1.49,0.12c-6.58,0.01-13.17,0.01-19.75,0.01
		c0,7.36,0,14.06,0,21.01c1.39,0,2.61,0,3.83,0c20.48,0,40.97,0,61.45,0c37.72,0,75.44-0.01,113.16,0.03c2.24,0,3.9-0.07,4.82-2.76
		c2.39-7.03,5.18-13.93,7.75-20.9c4.17-11.31,8.31-22.63,12.45-33.95c0.65-1.79,1.3-3.57,2.01-5.49c-7.36-1.4-15.04-2.86-22.59-4.3
		c-1.26,2.19-2.29,3.99-3.34,5.78c-3.29,5.63-6.46,11.34-9.92,16.87c-7,11.19-17.91,16.11-30.41,16.67
		c-16.44,0.74-32.93,0.31-49.41,0.29c-11.24-0.02-9.94-0.38-9.99-10.3c-0.19-42.85,0.13-85.7,0.31-128.55
		c0.02-4.11,2.49-7.28,6.51-8.45c2.14-0.62,4.36-1.15,6.57-1.27c7.34-0.38,14.7-0.56,22.05-0.81c0.51-0.66,1.44-1.32,1.45-1.99
		c0.12-5.55,0.13-11.1-0.01-16.65C764.23,63.84,763.19,63.12,762.63,62.38z M396.96,242.25c2.39,2.24,4.7,4.58,7.18,6.71
		c12.26,10.56,26.98,14.65,42.69,15.69c5.27,0.35,10.62-0.61,15.93-0.61c9.46,0.01,18.42-2.46,27.26-5.36
		c10.78-3.52,20.51-9.16,29.86-15.52c1-0.68,3.08-0.98,3.99-0.4c4.84,3.09,9.33,6.72,14.19,9.77c12.52,7.85,26.08,12.44,41.03,12.18
		c2.31-0.04,4.62-0.54,6.93-0.71c8-0.57,15.51-2.89,22.57-6.57c6.59-3.44,11.91-8.2,16.76-14.07c6.19-7.5,9.26-16.09,12.18-24.93
		c0.29-0.86-0.36-2.65-1.13-3.14c-6.51-4.15-13.16-8.09-19.99-12.24c-1.23,2.92-2.97,5.5-3.37,8.28
		c-0.86,6.07-3.81,10.55-8.87,13.64c-5.06,3.1-10.72,3.7-16.42,2.57c-3.89-0.77-8.02-1.58-11.39-3.5
		c-6.67-3.81-12.89-8.4-19.4-12.74c1.28-1.79,1.88-2.7,2.56-3.57c7.31-9.28,14.8-18.42,21.9-27.86c5.64-7.51,10.9-15.32,16.15-23.11
		c3.07-4.56,7.4-6.82,12.6-7.56c5.41-0.77,10.86-1.28,16.08-1.88c0-6.72,0-13.29,0-20.06c-26.59,0-52.94,0-79.28,0
		c-0.01-0.41-0.02-0.82-0.03-1.23c0.87-1.36,1.93-2.64,2.59-4.09c2.48-5.47,6.11-10.82,6.88-16.54c0.81-6.04,1.05-12.45-1.73-18.8
		c-3.04-6.95-7.22-12.68-12.95-17.19c-9.97-7.83-21.8-10.71-34.24-10.84c-6.61-0.07-13.35,0.31-19.83,1.54
		c-10.72,2.04-20.62,6.29-29.27,13.23c-4.35,3.5-8.06,7.41-10.99,12.21c-3.53,5.77-6.15,11.87-6.74,18.56
		c-0.7,7.86-0.56,15.74,2.08,23.37c1.35,3.91,2.34,7.95,3.83,11.79c1.06,2.72,2.69,5.21,3.67,7.07
		c-11.37,7.1-22.43,13.35-32.72,20.68c-6.29,4.48-11.73,10.33-16.89,16.14c-3.11,3.5-5.11,8.05-7.37,12.25
		c-5.53,10.28-8.06,20.99-3.68,32.39c1.59,4.13,3.53,8.12,5.47,12.52c-3.77-0.4-7.43-0.89-11.12-1.15
		c-13.19-0.96-24.22-6.38-33.24-15.96c-3.91-4.16-7.7-8.44-11.44-12.76c-7.83-9.06-15.59-18.19-23.38-27.29
		c-4.16-4.86-8.33-9.72-12.52-14.61c0.01-0.06,0-0.25,0.07-0.29c0.21-0.11,0.46-0.18,0.69-0.25c15.54-4.35,28.95-11.63,38.33-25.51
		c7.01-10.38,8.67-21.68,6.84-33.47c-1.4-9.03-5.68-16.97-12.41-23.57c-5.62-5.51-11.81-10.01-18.82-13.48
		c-10.86-5.38-22.64-7.16-34.48-8.17c-10.62-0.9-21.3-1.33-31.96-1.41c-27.98-0.19-55.95-0.06-83.93-0.06c-1.21,0-2.41,0-3.66,0
		c0,7.21,0,14.02,0,21.01c3.8,0,7.41-0.06,11.01,0.02c3.74,0.09,7.51,0.03,11.19,0.54c6.06,0.85,7.35,2.53,7.67,8.54
		c0.08,1.43,0.41,2.85,0.63,4.27c-0.24,1.15-0.68,2.3-0.68,3.45c-0.04,40.95-0.04,81.9,0,122.84c0,1.15,0.45,2.3,0.68,3.45
		c-0.24,0.92-0.64,1.84-0.69,2.77c-0.44,7.75-2.33,9.81-10.08,10.05c-6.57,0.21-13.16,0.04-19.78,0.04c0,7.33,0,14.03,0,20.81
		c37.01,0,73.86,0,110.75,0c0-6.89,0-13.57,0-20.56c-2.9,0-5.64,0.11-8.36-0.02c-5.45-0.27-10.9-0.66-16.34-1.05
		c-3.15-0.22-4.5-2.57-5.1-5.14c-0.63-2.72-0.65-5.59-0.94-8.39c0.27-1.39,0.76-2.78,0.77-4.17c0.08-15.02,0.09-30.04,0.12-45.06
		c5.54-1.34,9.23,1.08,12.21,5.58c1.89,2.84,4.24,5.39,6.47,7.99c7.54,8.76,15.14,17.45,22.66,26.22c3.98,4.64,7.79,9.44,11.76,14.1
		c7.89,9.25,15.89,18.4,23.72,27.7c1.72,2.05,3.46,3.08,6.22,3.07c21.47-0.1,42.94-0.05,64.41-0.06c1.09,0,2.17-0.1,3.75-0.18
		c0-6.29,0-12.39,0-18.48C396.36,241.89,396.66,242.07,396.96,242.25z M1132.21,781.61c-3.51,2.9-6.62,5.5-9.75,8.06
		c-5.79,4.74-11.63,9.43-17.4,14.2c-9.1,7.52-18.17,15.07-27.24,22.63c-5.68,4.73-11.29,9.55-17,14.23
		c-9.03,7.4-18.15,14.67-27.17,22.08c-7.42,6.1-14.7,12.36-22.11,18.47c-9.29,7.65-18.65,15.22-27.99,22.81
		c-5.71,4.64-11.45,9.23-17.13,13.9c-8.93,7.35-17.8,14.76-26.73,22.12c-5.78,4.76-11.61,9.45-17.4,14.21
		c-8.93,7.34-17.87,14.68-26.75,22.08c-5.87,4.88-11.59,9.94-17.48,14.8c-9.28,7.66-18.64,15.23-27.99,22.82
		c-5.82,4.72-11.96,9.09-17.41,14.19c-4.81,4.49-11.34,7.28-14.19,13.76c-0.46,1.04-1,2.45-0.65,3.36
		c2.27,5.86,5.64,8.06,11.97,8.06c109.21,0.01,218.41,0.02,327.62-0.05c2.02,0,4.42-0.39,6-1.5c4.8-3.37,9.35-7.13,13.9-10.85
		c5.72-4.68,11.3-9.53,17.02-14.21c5.78-4.74,11.69-9.33,17.48-14.07c5.62-4.6,11.12-9.34,16.74-13.95
		c7.59-6.23,15.27-12.35,22.87-18.58c5.62-4.61,11.13-9.35,16.74-13.96c5.88-4.82,11.85-9.53,17.74-14.34
		c5.72-4.68,11.35-9.47,17.08-14.14c7.32-5.97,14.72-11.84,22.03-17.83c5.81-4.76,11.47-9.7,17.28-14.46
		c7.31-5.99,14.75-11.82,22.06-17.81c5.71-4.68,11.27-9.56,16.97-14.26c7.87-6.47,15.83-12.82,23.71-19.27
		c5.43-4.45,10.74-9.04,16.16-13.48c7.69-6.3,15.48-12.48,23.17-18.78c5.62-4.6,11.11-9.37,16.73-13.97
		c7.6-6.22,15.32-12.31,22.92-18.54c5.61-4.6,11.06-9.4,16.67-14.01c7.78-6.39,15.67-12.66,23.47-19.03
		c5.52-4.52,10.93-9.18,16.46-13.69c7.61-6.22,15.31-12.32,22.91-18.54c5.71-4.67,11.29-9.49,16.98-14.18
		c5.88-4.84,11.86-9.56,17.74-14.39c5.52-4.53,10.93-9.2,16.45-13.72c7.7-6.3,15.5-12.48,23.19-18.78
		c5.61-4.6,11.08-9.38,16.7-13.97c5.6-4.57,11.37-8.95,16.96-13.53c5.71-4.68,11.26-9.57,16.96-14.27
		c7.86-6.48,15.81-12.84,23.69-19.29c5.53-4.53,10.96-9.16,16.5-13.68c7.51-6.13,15.09-12.17,22.62-18.28
		c7.44-6.04,14.77-12.22,22.3-18.14c3.78-2.97,5.29-6.85,4.09-11.51c-0.36-1.39-0.15-2.98,0.05-4.44c0.5-3.7,0.61-7.29-2.58-9.97
		c-5.47-4.59-10.98-9.14-16.5-13.66c-9.12-7.47-18.26-14.9-27.39-22.35c-5.8-4.73-11.62-9.43-17.38-14.2
		c-9.19-7.6-18.35-15.25-27.52-22.89c-5.58-4.65-11.11-9.36-16.72-13.97c-9.21-7.56-18.5-15.02-27.71-22.58
		c-5.51-4.53-10.9-9.22-16.41-13.75c-7.49-6.16-15.07-12.2-22.58-18.35c-5.81-4.76-11.54-9.63-17.35-14.4
		c-7.5-6.15-15.07-12.2-22.55-18.36c-5.79-4.77-11.46-9.7-17.25-14.48c-7.48-6.17-15.06-12.24-22.56-18.4
		c-5.61-4.61-11.13-9.33-16.74-13.94c-5.88-4.83-11.85-9.55-17.72-14.39c-5.7-4.7-11.27-9.57-16.99-14.24
		c-8.94-7.31-18-14.46-26.92-21.78c-7.51-6.17-14.83-12.58-22.35-18.75c-10.43-8.57-21.01-16.95-31.44-25.53
		c-9.3-7.65-18.44-15.51-27.73-23.17c-11.18-9.22-22.47-18.32-33.68-27.52c-6.94-5.69-13.78-11.5-20.73-17.19
		c-7.51-6.15-15.13-12.15-22.6-18.34c-9.1-7.53-18.04-15.27-27.17-22.77c-10.53-8.65-21.25-17.06-31.78-25.71
		c-9.13-7.5-18.08-15.22-27.18-22.76c-9.55-7.91-19.12-15.79-28.8-23.55c-3.7-2.96-7.22-6.07-12.65-6.06
		c-109.71,0.09-219.41,0.06-329.12,0.12c-2.06,0-4.22,0.45-6.16,1.18c-4.2,1.58-6.91,8.26-4.16,11.5
		c3.86,4.55,8.45,8.53,13.02,12.41c7.87,6.67,15.97,13.06,23.95,19.61c5.33,4.37,10.59,8.83,15.92,13.2
		c6.07,4.97,12.2,9.87,18.28,14.84c5.53,4.52,11,9.1,16.53,13.62c7.6,6.22,15.25,12.38,22.84,18.61
		c5.61,4.61,11.14,9.32,16.76,13.92c7.5,6.14,15.08,12.2,22.58,18.35c5.52,4.53,10.94,9.18,16.47,13.7
		c7.69,6.3,15.48,12.48,23.16,18.79c5.52,4.53,10.89,9.23,16.41,13.76c7.87,6.47,15.83,12.82,23.71,19.28
		c5.43,4.44,10.76,9.01,16.19,13.45c7.8,6.38,15.67,12.67,23.46,19.06c5.42,4.44,10.71,9.04,16.12,13.48
		c7.88,6.47,15.82,12.87,23.74,19.28c5.72,4.63,11.48,9.2,17.18,13.86c3.9,3.19,7.72,6.47,11.69,9.81
		c-5.66,4.8-11.13,9.57-16.72,14.18c-10.81,8.9-21.71,17.68-32.52,26.58c-7.32,6.02-14.54,12.18-21.85,18.22
		c-8.05,6.64-16.18,13.2-24.26,19.81c-6.27,5.13-12.46,10.35-18.84,15.33c-0.8,0.62-2.73,0.29-3.89-0.18
		c-1.07-0.44-1.74-1.75-2.7-2.54c-10.56-8.61-21.19-17.13-31.72-25.79c-9.22-7.58-18.27-15.36-27.49-22.93
		c-10.53-8.66-21.22-17.12-31.75-25.79c-10.93-9-21.77-18.11-32.61-27.21c-3.63-3.05-7.69-4.34-12.47-4.34
		C791.72,300.01,682.89,300,574.06,300c-1,0-2-0.06-3,0.01c-3.74,0.28-8.29,3.64-9.09,6.65c-0.86,3.24,0.9,7.85,3.36,9.8
		c7.5,5.94,14.95,11.95,22.33,18.04c7.47,6.16,14.81,12.49,22.28,18.65c7.87,6.49,15.84,12.84,23.73,19.3
		c5.52,4.52,10.93,9.16,16.45,13.68c5.89,4.83,11.89,9.53,17.77,14.37c5.51,4.53,10.89,9.23,16.41,13.75
		c7.69,6.3,15.5,12.48,23.2,18.77c5.62,4.6,11.12,9.35,16.74,13.95c5.86,4.8,11.82,9.46,17.68,14.25
		c7.14,5.84,14.18,11.79,21.32,17.64c9.12,7.47,18.28,14.89,27.43,22.33c6.09,4.95,12.23,9.86,18.3,14.84
		c7.14,5.85,14.21,11.78,21.34,17.64c6.08,5,12.21,9.92,18.28,14.92c4.05,3.33,8.04,6.74,12.74,10.69c-1,0.59-1.71,0.89-2.29,1.36
		c-6.03,4.83-12.07,9.64-18.04,14.55c-5.71,4.69-11.28,9.55-17,14.23c-8.93,7.31-17.99,14.47-26.9,21.8
		c-5.99,4.93-11.75,10.15-17.75,15.07c-8.92,7.32-18,14.44-26.92,21.76c-7.61,6.25-15.02,12.74-22.62,19
		c-11.06,9.11-22.2,18.13-33.31,27.18c-5.71,4.65-11.47,9.24-17.16,13.91c-7.13,5.85-14.25,11.71-21.32,17.63
		c-5.85,4.9-11.55,9.99-17.46,14.82c-10.55,8.63-21.26,17.06-31.79,25.71c-9.13,7.5-18.08,15.23-27.17,22.78
		c-5.48,4.55-5.35,10.8,0.81,14.39c2.22,1.3,5.18,1.83,7.81,1.84c108.58,0.09,217.16,0.08,325.74,0.03c1.94,0,4.28-0.11,5.74-1.15
		c6.09-4.31,11.99-8.89,17.8-13.56c5.76-4.63,11.29-9.54,17-14.22c7.69-6.31,15.49-12.49,23.19-18.79
		c5.61-4.6,11.09-9.36,16.71-13.96c7.59-6.22,15.28-12.33,22.88-18.54c6.95-5.68,13.81-11.47,20.79-17.11
		c0.54-0.44,1.99-0.49,2.52-0.07c3.77,2.96,7.42,6.08,11.1,9.15c5.67,4.74,11.3,9.52,17.01,14.2c5.79,4.75,11.68,9.37,17.49,14.09
		c7.34,5.96,14.66,11.94,21.96,17.95C1117.41,769.31,1124.66,775.35,1132.21,781.61z"/>
	<path class="st1" d="M1132.21,781.61c-7.55-6.26-14.8-12.3-22.09-18.29c-7.3-6.01-14.62-11.99-21.96-17.95
		c-5.81-4.72-11.7-9.34-17.49-14.09c-5.71-4.68-11.34-9.47-17.01-14.2c-3.68-3.07-7.32-6.19-11.1-9.15
		c-0.53-0.41-1.98-0.36-2.52,0.07c-6.98,5.64-13.84,11.43-20.79,17.11c-7.6,6.21-15.29,12.32-22.88,18.54
		c-5.61,4.6-11.09,9.36-16.71,13.96c-7.7,6.31-15.5,12.48-23.19,18.79c-5.71,4.69-11.24,9.6-17,14.22
		c-5.81,4.67-11.72,9.25-17.8,13.56c-1.46,1.04-3.8,1.15-5.74,1.15c-108.58,0.05-217.16,0.06-325.74-0.03
		c-2.63,0-5.59-0.54-7.81-1.84c-6.16-3.59-6.29-9.84-0.81-14.39c9.09-7.55,18.04-15.28,27.17-22.78
		c10.53-8.65,21.24-17.08,31.79-25.71c5.91-4.83,11.61-9.92,17.46-14.82c7.07-5.92,14.19-11.79,21.32-17.63
		c5.69-4.67,11.45-9.26,17.16-13.91c11.12-9.05,22.26-18.06,33.31-27.18c7.6-6.26,15.01-12.75,22.62-19
		c8.91-7.32,18-14.44,26.92-21.76c6-4.93,11.75-10.14,17.75-15.07c8.91-7.33,17.97-14.49,26.9-21.8c5.72-4.68,11.29-9.54,17-14.23
		c5.97-4.91,12.01-9.72,18.04-14.55c0.58-0.47,1.29-0.77,2.29-1.36c-4.7-3.95-8.69-7.35-12.74-10.69c-6.07-5-12.2-9.93-18.28-14.92
		c-7.13-5.86-14.2-11.79-21.34-17.64c-6.07-4.98-12.2-9.89-18.3-14.84c-9.15-7.43-18.31-14.85-27.43-22.33
		c-7.13-5.85-14.18-11.8-21.32-17.64c-5.86-4.79-11.82-9.45-17.68-14.25c-5.62-4.6-11.11-9.35-16.74-13.95
		c-7.7-6.3-15.5-12.47-23.2-18.77c-5.52-4.52-10.9-9.22-16.41-13.75c-5.88-4.84-11.88-9.54-17.77-14.37
		c-5.52-4.52-10.93-9.16-16.45-13.68c-7.89-6.46-15.86-12.81-23.73-19.3c-7.47-6.16-14.81-12.49-22.28-18.65
		c-7.39-6.08-14.83-12.1-22.33-18.04c-2.46-1.95-4.22-6.56-3.36-9.8c0.8-3.02,5.36-6.38,9.09-6.65c0.99-0.07,2-0.01,3-0.01
		c108.83,0,217.66,0.01,326.49-0.05c4.78,0,8.84,1.29,12.47,4.34c10.85,9.1,21.68,18.21,32.61,27.21
		c10.53,8.66,21.21,17.13,31.75,25.79c9.22,7.58,18.27,15.36,27.49,22.93c10.52,8.65,21.15,17.18,31.72,25.79
		c0.96,0.79,1.64,2.1,2.7,2.54c1.16,0.48,3.09,0.81,3.89,0.18c6.39-4.97,12.58-10.2,18.84-15.33c8.08-6.61,16.2-13.17,24.26-19.81
		c7.32-6.03,14.53-12.19,21.85-18.22c10.81-8.89,21.72-17.68,32.52-26.58c5.6-4.61,11.07-9.37,16.72-14.18
		c-3.97-3.34-7.79-6.62-11.69-9.81c-5.7-4.66-11.46-9.23-17.18-13.86c-7.93-6.41-15.86-12.82-23.74-19.28
		c-5.42-4.44-10.71-9.04-16.12-13.48c-7.79-6.39-15.67-12.68-23.46-19.06c-5.43-4.44-10.76-9.01-16.19-13.45
		c-7.88-6.45-15.84-12.81-23.71-19.28c-5.51-4.53-10.89-9.23-16.41-13.76c-7.68-6.31-15.47-12.49-23.16-18.79
		c-5.53-4.52-10.94-9.18-16.47-13.7c-7.5-6.15-15.08-12.2-22.58-18.35c-5.62-4.6-11.14-9.31-16.76-13.92
		c-7.59-6.23-15.24-12.39-22.84-18.61c-5.53-4.52-11-9.1-16.53-13.62c-6.08-4.97-12.21-9.86-18.28-14.84
		c-5.33-4.37-10.59-8.83-15.92-13.2c-7.98-6.54-16.08-12.93-23.95-19.61c-4.57-3.88-9.16-7.86-13.02-12.41
		c-2.76-3.24-0.05-9.92,4.16-11.5c1.93-0.73,4.1-1.18,6.16-1.18c109.71-0.05,219.41-0.02,329.12-0.12c5.42,0,8.95,3.1,12.65,6.06
		c9.68,7.75,19.25,15.63,28.8,23.55c9.1,7.54,18.04,15.27,27.18,22.76c10.53,8.65,21.25,17.06,31.78,25.71
		c9.13,7.5,18.07,15.23,27.17,22.77c7.48,6.18,15.1,12.19,22.6,18.34c6.94,5.69,13.79,11.5,20.73,17.19
		c11.21,9.19,22.49,18.29,33.68,27.52c9.29,7.67,18.43,15.52,27.73,23.17c10.43,8.57,21.01,16.96,31.44,25.53
		c7.51,6.17,14.84,12.58,22.35,18.75c8.92,7.33,17.98,14.48,26.92,21.78c5.72,4.68,11.29,9.54,16.99,14.24
		c5.87,4.84,11.84,9.56,17.72,14.39c5.61,4.61,11.13,9.33,16.74,13.94c7.5,6.16,15.07,12.23,22.56,18.4
		c5.79,4.78,11.45,9.71,17.25,14.48c7.48,6.16,15.05,12.22,22.55,18.36c5.81,4.77,11.54,9.64,17.35,14.4
		c7.5,6.14,15.08,12.19,22.58,18.35c5.51,4.53,10.9,9.22,16.41,13.75c9.21,7.56,18.5,15.02,27.71,22.58
		c5.61,4.61,11.14,9.32,16.72,13.97c9.17,7.64,18.33,15.28,27.52,22.89c5.76,4.77,11.59,9.47,17.38,14.2
		c9.13,7.45,18.27,14.89,27.39,22.35c5.52,4.53,11.04,9.07,16.5,13.66c3.19,2.68,3.08,6.27,2.58,9.97c-0.2,1.46-0.41,3.05-0.05,4.44
		c1.2,4.66-0.31,8.54-4.09,11.51c-7.53,5.92-14.86,12.1-22.3,18.14c-7.52,6.11-15.1,12.16-22.62,18.28
		c-5.53,4.52-10.97,9.15-16.5,13.68c-7.88,6.45-15.83,12.82-23.69,19.29c-5.7,4.7-11.25,9.58-16.96,14.27
		c-5.59,4.58-11.36,8.96-16.96,13.53c-5.62,4.59-11.09,9.37-16.7,13.97c-7.7,6.3-15.49,12.48-23.19,18.78
		c-5.53,4.52-10.94,9.19-16.45,13.72c-5.88,4.84-11.86,9.55-17.74,14.39c-5.69,4.68-11.28,9.51-16.98,14.18
		c-7.6,6.22-15.3,12.33-22.91,18.54c-5.53,4.52-10.93,9.17-16.46,13.69c-7.8,6.38-15.68,12.64-23.47,19.03
		c-5.61,4.61-11.06,9.41-16.67,14.01c-7.6,6.23-15.31,12.32-22.92,18.54c-5.62,4.6-11.11,9.36-16.73,13.97
		c-7.69,6.3-15.48,12.49-23.17,18.78c-5.43,4.44-10.74,9.03-16.16,13.48c-7.88,6.46-15.84,12.8-23.71,19.27
		c-5.71,4.69-11.26,9.57-16.97,14.26c-7.31,5.99-14.75,11.82-22.06,17.81c-5.81,4.76-11.47,9.7-17.28,14.46
		c-7.3,5.99-14.71,11.86-22.03,17.83c-5.72,4.67-11.36,9.46-17.08,14.14c-5.89,4.81-11.86,9.52-17.74,14.34
		c-5.62,4.61-11.13,9.35-16.74,13.96c-7.59,6.23-15.27,12.35-22.87,18.58c-5.62,4.6-11.12,9.35-16.74,13.95
		c-5.79,4.74-11.7,9.33-17.48,14.07c-5.72,4.69-11.3,9.53-17.02,14.21c-4.55,3.72-9.09,7.48-13.9,10.85c-1.58,1.11-3.98,1.5-6,1.5
		c-109.21,0.07-218.41,0.06-327.62,0.05c-6.32,0-9.7-2.2-11.97-8.06c-0.35-0.91,0.19-2.32,0.65-3.36
		c2.85-6.48,9.38-9.27,14.19-13.76c5.46-5.1,11.6-9.47,17.41-14.19c9.35-7.59,18.71-15.16,27.99-22.82
		c5.89-4.86,11.61-9.91,17.48-14.8c8.89-7.4,17.82-14.74,26.75-22.08c5.78-4.75,11.62-9.44,17.4-14.21
		c8.92-7.36,17.8-14.77,26.73-22.12c5.68-4.67,11.42-9.26,17.13-13.9c9.34-7.59,18.7-15.16,27.99-22.81
		c7.41-6.1,14.69-12.37,22.11-18.47c9.02-7.41,18.14-14.68,27.17-22.08c5.72-4.68,11.33-9.5,17-14.23
		c9.07-7.56,18.14-15.11,27.24-22.63c5.77-4.77,11.61-9.46,17.4-14.2C1125.59,787.1,1128.7,784.51,1132.21,781.61z M827.16,1043.77
		c0.08,0.37,0.16,0.74,0.24,1.11c1.29,0.2,2.58,0.56,3.88,0.59c4.12,0.08,8.25,0.03,12.37,0.03c103.58,0,207.17,0.01,310.75-0.05
		c1.9,0,4.24-0.17,5.63-1.24c5.89-4.51,11.5-9.38,17.19-14.15c5.69-4.76,11.31-9.62,17.05-14.33c7.44-6.1,15-12.07,22.46-18.15
		c7.38-6.01,14.69-12.09,22.05-18.12c8.89-7.28,17.83-14.49,26.7-21.8c7.44-6.13,14.78-12.4,22.22-18.52
		c7.73-6.35,15.56-12.57,23.29-18.92c5.54-4.56,10.94-9.28,16.48-13.84c7.82-6.43,15.73-12.77,23.58-19.16
		c5.55-4.52,11.07-9.1,16.62-13.63c5.64-4.61,11.33-9.16,16.95-13.8c5.73-4.72,11.36-9.56,17.11-14.26
		c7.36-6.01,14.85-11.87,22.2-17.89c7.46-6.11,14.81-12.36,22.26-18.49c9.25-7.62,18.55-15.17,27.83-22.75
		c5.93-4.85,11.87-9.68,17.79-14.55c8.97-7.38,17.92-14.78,26.88-22.17c5.53-4.57,11.04-9.18,16.59-13.72
		c7.64-6.25,15.35-12.42,22.98-18.69c5.54-4.56,10.96-9.26,16.5-13.82c7.82-6.43,15.72-12.77,23.55-19.18
		c5.55-4.55,11.03-9.18,16.59-13.72c7.56-6.17,15.19-12.24,22.73-18.43c5.74-4.71,11.34-9.57,17.07-14.28
		c5.72-4.7,11.56-9.26,17.29-13.94c5.65-4.62,11.22-9.35,16.86-13.97c7.64-6.25,15.35-12.42,22.98-18.69
		c7.26-5.96,14.44-12.02,21.71-17.98c10.8-8.85,21.66-17.61,32.44-26.48c1.24-1.02,2.15-2.45,3.21-3.69
		c-1.75-0.31-3.51-0.9-5.26-0.9c-106.71-0.04-213.42,0.03-320.12-0.22c-5.98-0.01-10.03,2.26-14.11,5.74
		c-5.64,4.82-11.26,9.66-16.98,14.38c-11.15,9.2-22.38,18.3-33.55,27.47c-7.07,5.81-14.07,11.7-21.14,17.51
		c-7.82,6.43-15.7,12.8-23.53,19.22c-6.88,5.65-13.72,11.34-20.6,16.99c-7.63,6.27-15.29,12.5-22.94,18.76
		c-5.93,4.85-11.85,9.7-17.76,14.57c-8.97,7.38-17.92,14.77-26.89,22.15c-5.81,4.79-11.64,9.57-17.44,14.37
		c-9.14,7.56-18.27,15.13-27.41,22.69c-5.72,4.73-11.41,9.49-17.15,14.19c-8.99,7.36-18.03,14.66-26.99,22.04
		c-7.45,6.13-14.8,12.39-22.25,18.51c-9.15,7.53-18.4,14.95-27.55,22.47c-5.54,4.56-10.93,9.29-16.48,13.83
		c-8.98,7.35-18.08,14.54-27.04,21.91c-9.17,7.54-18.17,15.28-27.34,22.82c-10.49,8.62-21.14,17.05-31.63,25.67
		c-9.27,7.62-18.36,15.44-27.63,23.06c-12.3,10.12-24.71,20.12-37.04,30.21c-9.85,8.05-19.67,16.15-29.48,24.25
		c-11.92,9.83-23.83,19.67-35.72,29.53c-7.14,5.92-14.18,11.95-21.35,17.83C844.99,1029.41,836.06,1036.57,827.16,1043.77z
		 M827.39,31.36c-0.05,0.34-0.1,0.67-0.14,1.01c6.93,5.73,13.84,11.49,20.79,17.19c7.27,5.96,14.61,11.84,21.88,17.81
		c5.65,4.64,11.19,9.41,16.83,14.05c7.64,6.28,15.36,12.47,23,18.75c7.37,6.06,14.66,12.21,22.04,18.26
		c7.65,6.28,15.39,12.45,23.04,18.72c5.74,4.71,11.38,9.55,17.12,14.25c5.55,4.55,11.21,8.97,16.77,13.52
		c5.75,4.71,11.4,9.55,17.15,14.27c7.74,6.35,15.53,12.64,23.29,18.97c7.28,5.94,14.56,11.9,21.83,17.86
		c10.72,8.79,21.46,17.58,32.16,26.4c5.55,4.57,11,9.26,16.56,13.82c7.56,6.2,15.21,12.28,22.76,18.48
		c7.47,6.13,14.84,12.38,22.31,18.51c9,7.38,18.07,14.66,27.08,22.02c7.48,6.12,14.88,12.33,22.37,18.45
		c7.27,5.95,14.64,11.78,21.9,17.75c5.65,4.64,11.15,9.45,16.8,14.1c7.83,6.45,15.74,12.8,23.59,19.23
		c7.28,5.97,14.5,12.02,21.79,17.98c7.56,6.19,15.19,12.3,22.76,18.47c6.04,4.92,12.03,9.89,18.06,14.83
		c5.27,4.32,10.58,8.6,15.84,12.95c5.82,4.82,11.55,9.74,17.39,14.53c7.65,6.28,15.4,12.45,23.05,18.72
		c7.18,5.89,14.26,11.91,21.44,17.8c10.91,8.94,22.02,17.65,32.76,26.78c5.45,4.63,10.75,7.46,18.48,7.42
		c74.96-0.34,149.92-0.21,224.88-0.21c30.61,0,61.22,0.01,91.83-0.02c1.47,0,2.94-0.3,5.09-0.53c-0.93-1.16-1.22-1.68-1.66-2.03
		c-6.97-5.75-13.98-11.45-20.92-17.23c-10.76-8.95-21.43-18.01-32.23-26.91c-11.17-9.21-22.49-18.25-33.68-27.44
		c-8.61-7.08-17.06-14.35-25.68-21.42c-11-9.03-22.11-17.93-33.15-26.92c-9.59-7.81-19.16-15.65-28.7-23.52
		c-11.85-9.76-23.66-19.56-35.48-29.35c-8.77-7.26-17.5-14.57-26.29-21.8c-9.19-7.54-18.49-14.95-27.65-22.52
		c-7.64-6.32-15.08-12.88-22.73-19.19c-8.97-7.4-18.12-14.58-27.1-21.98c-10.71-8.82-21.27-17.82-31.97-26.64
		c-10.79-8.89-21.72-17.62-32.52-26.51c-8.9-7.31-17.65-14.8-26.56-22.11c-11-9.03-22.11-17.93-33.15-26.92
		c-5.86-4.77-11.67-9.59-17.49-14.4c-7.45-6.16-14.91-12.31-22.33-18.5c-5.52-4.6-10.92-9.35-16.48-13.89
		c-10.72-8.74-21.57-17.33-32.29-26.09c-5.85-4.78-11.48-9.84-17.32-14.64c-10.51-8.64-21.13-17.13-31.64-25.78
		c-9.18-7.55-18.33-15.15-27.36-22.89c-3.67-3.15-7.56-4.24-12.45-4.22c-50.6,0.19-101.2,0.11-151.8,0.11
		c-56.22,0-112.44-0.01-168.66,0.03C830.85,30.78,829.12,31.16,827.39,31.36z M571.86,308.03c-0.19,0.4-0.38,0.79-0.57,1.19
		c1,1.16,1.85,2.48,3.01,3.44c8.77,7.28,17.58,14.51,26.41,21.72c8.9,7.27,17.87,14.47,26.75,21.77
		c7.47,6.14,14.8,12.43,22.28,18.55c12.55,10.27,25.2,20.41,37.75,30.68c7.19,5.89,14.2,12,21.4,17.88
		c12.27,10.01,24.68,19.83,36.92,29.87c12.45,10.21,24.71,20.65,37.16,30.87c13.97,11.47,28.08,22.75,42.06,34.19
		c13.61,11.14,27.16,22.34,40.66,33.6c1.68,1.4,2.62,1,4.1-0.25c4.42-3.77,9.02-7.31,13.5-11c7.44-6.15,14.85-12.34,22.26-18.52
		c5.61-4.68,11.18-9.42,16.82-14.06c8.99-7.39,18.04-14.7,27.04-22.07c7.57-6.19,15.11-12.43,22.67-18.63
		c7.18-5.89,14.41-11.73,21.57-17.64c7.54-6.23,15.01-12.55,22.55-18.78c6-4.95,12.06-9.83,18.4-14.98
		c-3.85-3.2-7.35-6.13-10.87-9.03c-7.45-6.15-14.88-12.31-22.35-18.43c-7.17-5.88-14.42-11.66-21.56-17.57
		c-7.54-6.24-14.95-12.64-22.51-18.87c-8.98-7.4-18.07-14.66-27.07-22.05c-7.37-6.06-14.74-12.12-21.97-18.36
		c-3.31-2.85-6.87-3.61-11.18-3.6c-106.82,0.11-213.65,0.09-320.47,0.09C575.03,308.03,573.45,308.03,571.86,308.03z M872.61,560.17
		c2.93,0.16,4.88,0.35,6.83,0.35c27.48,0.07,54.97,0.16,82.45,0.17c61.97,0.02,123.94,0.01,185.91,0.01
		c16.99,0,33.99-0.17,50.97,0.1c5.51,0.09,9.58-1.76,13.55-5.44c5.33-4.94,11.26-9.24,16.91-13.83
		c7.09-5.76,14.19-11.52,21.24-17.34c7.53-6.22,14.96-12.56,22.5-18.76c9.15-7.53,18.37-14.99,27.57-22.46
		c7.57-6.15,15.19-12.23,22.74-18.41c2.73-2.24,5.3-4.67,8.17-7.21c-2.27-1.85-4.17-3.42-6.08-4.97
		c-6.03-4.91-12.08-9.79-18.09-14.72c-5.64-4.62-11.25-9.29-16.85-13.95c-5.51-4.59-10.96-9.26-16.51-13.81
		c-7.73-6.35-15.54-12.6-23.27-18.94c-5.55-4.54-11.01-9.2-16.57-13.73c-7.55-6.16-15.19-12.22-22.73-18.39
		c-5.45-4.46-10.79-9.07-16.23-13.54c-9.17-7.52-18.48-14.86-27.51-22.54c-2.48-2.11-3.74-2-6.14,0.11
		c-6.86,6.05-14.04,11.73-21.11,17.54c-7.63,6.26-15.31,12.47-22.94,18.75c-5.72,4.72-11.36,9.54-17.08,14.25
		c-9.06,7.45-18.16,14.85-27.24,22.27c-5.73,4.69-11.46,9.38-17.2,14.06c-6.12,4.98-12.26,9.93-18.36,14.93
		c-3.63,2.98-7.17,6.08-10.81,9.05c-7.46,6.08-15.01,12.06-22.44,18.19c-9.06,7.46-17.99,15.09-27.07,22.54
		c-10.59,8.7-21.34,17.22-31.92,25.93c-10.88,8.96-21.59,18.14-32.48,27.09C899.75,538.2,886.57,548.82,872.61,560.17z M870,563.09
		c-1.29,0.72-2.35,1.11-3.18,1.8c-10.59,8.73-21.14,17.49-31.69,26.26c-6.94,5.77-13.82,11.6-20.78,17.35
		c-8.09,6.69-16.23,13.31-24.34,19.97c-6.88,5.65-13.73,11.32-20.61,16.96c-7.65,6.26-15.35,12.45-22.98,18.73
		c-5.73,4.72-11.34,9.57-17.07,14.28c-9.06,7.45-18.18,14.82-27.26,22.24c-7.56,6.18-15.09,12.37-22.64,18.56
		c-7.16,5.88-14.36,11.71-21.48,17.64c-5.89,4.91-11.63,10.01-17.55,14.88c-8.97,7.37-18.05,14.6-27.06,21.93
		c-7.86,6.39-15.7,12.81-23.48,19.28c-1.11,0.92-1.89,2.24-2.83,3.37c0.19,0.34,0.37,0.68,0.56,1.02c1.57,0,3.15,0,4.72,0
		c69.22,0,138.44,0,207.67,0c38.11,0,76.22,0.01,114.33-0.03c1.55,0,3.43-0.04,4.59-0.86c3.32-2.34,6.37-5.08,9.51-7.68
		c10.75-8.93,21.43-17.92,32.24-26.78c12.51-10.26,25.13-20.39,37.69-30.6c9.49-7.71,18.97-15.43,28.42-23.2
		c2.61-2.15,5.06-4.49,7.78-6.92c-2.08-1.62-3.76-2.86-5.37-4.2c-5.88-4.92-11.69-9.94-17.61-14.81
		c-9.15-7.52-18.41-14.91-27.57-22.43c-7.36-6.04-14.61-12.22-21.96-18.26c-7.64-6.27-15.36-12.43-23.02-18.69
		c-7.09-5.79-14.1-11.66-21.2-17.44c-7.27-5.93-14.62-11.76-21.9-17.68c-6.32-5.14-12.82-10.1-18.8-15.63
		C874.39,569.62,869.56,568.55,870,563.09z M1305.56,638.93c-5.23-4.36-9.97-8.33-14.73-12.28c-7.15-5.93-14.28-11.88-21.48-17.76
		c-8.91-7.28-17.92-14.44-26.81-21.75c-8.61-7.07-17.08-14.3-25.73-21.32c-0.79-0.64-2.96-0.87-3.49-0.32
		c-2.98,3.08-6.67,3.01-10.45,3.01c-103.81-0.01-207.62-0.01-311.42-0.01c-1.43,0-2.87,0-5.28,0c8.25,6.72,15.74,12.76,23.16,18.88
		c7.46,6.15,14.82,12.41,22.28,18.55c7.74,6.37,15.56,12.64,23.32,18.97c7.29,5.94,14.54,11.91,21.82,17.87
		c10.54,8.62,21.12,17.19,31.61,25.86c7.45,6.16,14.7,12.55,22.19,18.66c10.36,8.44,20.92,16.64,31.27,25.09
		c9.31,7.59,18.41,15.44,27.67,23.08c14.52,11.98,29.12,23.84,43.63,35.83c5.56,4.59,5.48,4.69,11.15,0.21
		c0.29-0.23,0.66-0.34,0.95-0.58c9-7.38,18.01-14.75,26.99-22.16c7.54-6.22,15.03-12.51,22.58-18.73
		c7.07-5.82,14.2-11.58,21.28-17.39c7.66-6.28,15.29-12.6,22.94-18.88c7.18-5.89,14.4-11.74,21.56-17.66
		c7.54-6.23,15.01-12.54,22.54-18.77C1290.53,651.2,1298,645.12,1305.56,638.93z M1221.94,558.91c1.67,1.3,2.95,2.23,4.16,3.25
		c5.83,4.93,11.57,9.96,17.46,14.81c7.2,5.92,14.57,11.63,21.77,17.55c7.51,6.17,14.87,12.54,22.38,18.72
		c7.39,6.08,14.95,11.96,22.28,18.11c1.91,1.6,3.01,1.84,4.94,0.06c4.16-3.83,8.54-7.43,12.91-11.02
		c7.39-6.08,14.87-12.05,22.27-18.12c5.71-4.68,11.32-9.48,17.02-14.17c7.68-6.31,15.4-12.58,23.1-18.86
		c7.33-5.98,14.67-11.94,21.97-17.95c5.56-4.58,11.07-9.24,16.64-13.89c-5.5-4.61-10.81-9.16-16.23-13.58
		c-7.22-5.89-14.56-11.62-21.76-17.53c-7.51-6.17-14.85-12.54-22.36-18.71c-9.1-7.48-18.38-14.75-27.4-22.34
		c-2.25-1.89-3.43-1.76-5.53,0.14c-5.37,4.87-10.99,9.49-16.6,14.09c-7.77,6.39-15.65,12.64-23.44,19.01
		c-5.52,4.52-10.94,9.18-16.46,13.7c-7.69,6.29-15.45,12.51-23.18,18.77c-5.91,4.78-11.83,9.54-17.7,14.37
		C1232.81,549.75,1227.49,554.26,1221.94,558.91z"/>
	<path class="st2" d="M194.51,96.76c-0.22-1.42-0.55-2.84-0.63-4.27c-0.33-6.01-1.62-7.7-7.67-8.54c-3.69-0.51-7.46-0.46-11.19-0.54
		c-3.6-0.08-7.21-0.02-11.01-0.02c0-6.99,0-13.8,0-21.01c1.25,0,2.46,0,3.66,0c27.98,0,55.96-0.12,83.93,0.06
		c10.66,0.07,21.34,0.5,31.96,1.41c11.85,1.01,23.62,2.8,34.48,8.17c7.01,3.47,13.2,7.97,18.82,13.48
		c6.73,6.6,11.01,14.55,12.41,23.57c1.82,11.79,0.16,23.09-6.84,33.47c-9.37,13.88-22.79,21.16-38.33,25.51
		c-0.24,0.07-0.48,0.13-0.69,0.25c-0.07,0.04-0.05,0.22-0.07,0.29c4.19,4.89,8.36,9.74,12.52,14.61
		c7.79,9.1,15.55,18.23,23.38,27.29c3.73,4.32,7.52,8.6,11.44,12.76c9.01,9.57,20.05,15,33.24,15.96c3.68,0.27,7.35,0.76,11.12,1.15
		c-1.93-4.4-3.88-8.39-5.47-12.52c-4.37-11.4-1.84-22.11,3.68-32.39c2.26-4.2,4.26-8.75,7.37-12.25
		c5.17-5.81,10.61-11.66,16.89-16.14c10.29-7.33,21.36-13.58,32.72-20.68c-0.98-1.86-2.62-4.35-3.67-7.07
		c-1.49-3.85-2.48-7.89-3.83-11.79c-2.64-7.63-2.78-15.51-2.08-23.37c0.59-6.69,3.22-12.79,6.74-18.56
		c2.93-4.8,6.64-8.71,10.99-12.21c8.65-6.94,18.55-11.19,29.27-13.23c6.48-1.24,13.22-1.61,19.83-1.54
		c12.43,0.13,24.27,3.01,34.24,10.84c5.73,4.5,9.91,10.23,12.95,17.19c2.78,6.35,2.54,12.76,1.73,18.8
		c-0.77,5.72-4.4,11.07-6.88,16.54c-0.66,1.46-1.72,2.73-2.59,4.09c-0.47,0.3-0.93,0.6-1.4,0.9c0.48,0.11,0.95,0.22,1.43,0.33
		c26.35,0,52.69,0,79.28,0c0,6.77,0,13.34,0,20.06c-5.22,0.6-10.67,1.11-16.08,1.88c-5.21,0.74-9.53,3-12.6,7.56
		c-5.25,7.79-10.51,15.6-16.15,23.11c-7.1,9.44-14.59,18.58-21.9,27.86c-0.68,0.86-1.28,1.78-2.56,3.57
		c6.51,4.34,12.73,8.93,19.4,12.74c3.37,1.93,7.5,2.73,11.39,3.5c5.7,1.13,11.36,0.52,16.42-2.57c5.06-3.1,8.01-7.57,8.87-13.64
		c0.39-2.78,2.13-5.37,3.37-8.28c6.83,4.15,13.48,8.09,19.99,12.24c0.77,0.49,1.41,2.28,1.13,3.14
		c-2.93,8.84-5.99,17.44-12.18,24.93c-4.85,5.87-10.17,10.63-16.76,14.07c-7.06,3.68-14.57,6.01-22.57,6.57
		c-2.32,0.16-4.62,0.67-6.93,0.71c-14.95,0.26-28.51-4.33-41.03-12.18c-4.86-3.05-9.35-6.69-14.19-9.77
		c-0.91-0.58-2.99-0.29-3.99,0.4c-9.35,6.37-19.08,12-29.86,15.52c-8.84,2.89-17.8,5.36-27.26,5.36c-5.31,0-10.65,0.96-15.93,0.61
		c-15.71-1.04-30.43-5.13-42.69-15.69c-2.48-2.14-4.79-4.47-7.18-6.71c-0.3-0.18-0.6-0.36-0.9-0.54c0,6.09,0,12.18,0,18.48
		c-1.58,0.08-2.67,0.18-3.75,0.18c-21.47,0.01-42.94-0.04-64.41,0.06c-2.77,0.01-4.5-1.02-6.22-3.07
		c-7.83-9.3-15.83-18.45-23.72-27.7c-3.97-4.66-7.78-9.45-11.76-14.1c-7.52-8.77-15.13-17.46-22.66-26.22
		c-2.24-2.6-4.59-5.15-6.47-7.99c-2.98-4.49-6.68-6.92-12.21-5.58c-0.53,0.93-1.5,1.87-1.51,2.8c-0.1,14.59-0.08,29.18-0.04,43.78
		c0,0.88,0.43,1.77,0.66,2.65c0.29,2.8,0.31,5.67,0.94,8.39c0.59,2.57,1.95,4.92,5.1,5.14c5.45,0.39,10.89,0.77,16.34,1.05
		c2.72,0.14,5.46,0.02,8.36,0.02c0,6.99,0,13.67,0,20.56c-36.89,0-73.75,0-110.75,0c0-6.78,0-13.48,0-20.81
		c6.63,0,13.21,0.16,19.78-0.04c7.75-0.24,9.63-2.3,10.08-10.05c0.05-0.93,0.45-1.85,0.69-2.77c0.26-1.13,0.75-2.26,0.75-3.39
		c0.04-40.99,0.04-81.98,0-122.96C195.26,99.01,194.77,97.89,194.51,96.76z M235.13,167.37c5.87-0.01,11.75,0.2,17.6-0.12
		c3.07-0.17,5.21,0.88,7.03,3.05c2.3,2.76,4.53,5.57,6.83,8.34c4.03,4.86,8.03,9.74,12.13,14.53c5.78,6.74,11.67,13.37,17.45,20.11
		c4.02,4.7,7.88,9.53,11.9,14.24c6.08,7.13,12.35,14.1,18.28,21.36c2,2.45,4.02,3.7,7.21,3.69c16.24-0.1,32.48-0.04,48.72-0.05
		c4.42,0,4.61-0.28,3.55-4.8c-2.31-0.34-4.64-0.65-6.97-1.02c-13.36-2.12-25.29-7.07-34.53-17.41
		c-4.93-5.52-10.07-10.86-14.95-16.43c-6.42-7.34-12.66-14.84-19.01-22.24c-3.93-4.59-7.97-9.08-11.88-13.69
		c-3.62-4.26-7.12-8.6-10.79-13.04c12.7-2.73,24.72-6.07,35.19-13.64c8.13-5.88,13.72-13.53,16.37-23.07
		c1.07-3.86,0.33-8.18,0.78-12.25c0.79-7.06-2.14-13.16-5.84-18.44c-7.32-10.46-17.63-17.24-29.92-20.89
		c-12.32-3.66-25.05-4.59-37.74-4.75c-30.47-0.39-60.95-0.19-91.43-0.21c-0.46,0-0.93,0.24-1.37,0.37c0,1.56,0,3,0,4.72
		c4.1,0,7.97-0.26,11.8,0.05c11.05,0.91,17.77,4.83,18.02,16.87c0.05,2.5,0.21,4.99,0.21,7.49c0.01,40.99,0.02,81.98,0,122.96
		c0,2.87,0.19,5.82-0.36,8.6c-0.64,3.22-1.23,6.97-3.23,9.3c-3.93,4.6-9.63,6.38-15.71,6.5c-3.58,0.07-7.16,0.01-11.03,0.01
		c0.11,1.94,0.19,3.23,0.27,4.7c30.62,0,60.79,0,91.08,0c0-1.63,0-2.94,0-4.71c-4.05,0-7.95,0.37-11.74-0.07
		c-11.3-1.33-17.01-4.89-17.91-15.58c-0.17-1.99-0.17-3.99-0.26-5.99c0.05-1.61,0.13-3.22,0.13-4.84
		C235.06,203.14,235.09,185.25,235.13,167.37z M495.12,147.67c4.1-1.88,7.89-3.39,11.46-5.29c12.24-6.5,25-12.21,34-23.51
		c5.7-7.16,9-20.72,5.11-29.52c-5.86-13.23-16.27-19.4-29.4-21.8c-15.67-2.86-30.82-0.49-44.82,7.39
		c-10.82,6.09-18.63,14.85-20.71,27.43c-1.44,8.74-1.27,17.53,2.37,25.98c3.21,7.43,6.08,15,9.16,22.65
		c-1.04,0.54-2.57,1.32-4.11,2.11c-0.22,0.11-0.44,0.24-0.66,0.35c-18.34,9.1-36.82,17.96-49.47,35.13
		c-7.53,10.21-12.23,20.92-9.8,34.15c2.16,11.74,9.65,18.92,18.91,24.9c8.47,5.47,18.04,7.59,27.96,8.46
		c17.11,1.49,33.73-0.62,49.15-8.24c8.95-4.43,17.18-10.3,25.71-15.56c1.91-1.18,3.31-1.67,5.5,0.14
		c5.52,4.55,11.27,8.88,17.24,12.81c13.82,9.08,28.97,13.22,45.49,10.44c12.85-2.17,23.76-7.91,30.95-19.26
		c2.23-3.52,3.72-7.5,5.84-11.11c3.64-6.2,2.51-5.41-3.11-8.29c-3.1,5.4-5.67,11.04-11.63,14.41c-12.23,6.92-24.46,5.65-36.67,0.7
		c-11.32-4.59-20.24-12.66-28.73-21.14c0.13-0.37,0.15-0.65,0.3-0.82c7.31-8.66,15.01-17.03,21.86-26.04
		c7.47-9.81,13.99-20.34,21.24-30.33c4.53-6.24,10.18-11.18,18.36-12.19c3.29-0.41,6.55-1.14,10-1.76
		c-0.07-1.48-0.12-2.78-0.18-4.11c-22.06,0-43.74,0-65.65,0c0,1.52,0,2.82,0,4.2c0.84,0.2,1.56,0.34,2.26,0.54
		c8.35,2.25,11.94,6.99,11.94,15.68c0,6.48-1.9,12.29-4.96,18.06c-5.34,10.09-12.62,18.54-20.31,26.78
		c-1.93,2.07-3.08,1.82-4.68-0.19c-4.86-6.07-10.05-11.89-14.68-18.13C511.85,171.21,503.64,159.51,495.12,147.67z M508.7,151.48
		c9.57,12.74,19.19,25.56,28.82,38.37c0.52-0.01,1.04-0.03,1.56-0.04c3.91-6.18,7.6-12.51,11.79-18.5
		c3.89-5.56,4.62-11.73,4.21-18.1c-0.17-2.66-1.92-4.72-5.22-4.78c-2.65-0.05-5.28-0.58-8.42-0.95c0-5.55,0-10.76,0-15.35
		C530.61,138.52,519.95,144.83,508.7,151.48z"/>
	<path class="st3" d="M762.8,83.24c-7.35,0.25-14.71,0.43-22.05,0.81c-2.21,0.11-4.43,0.65-6.57,1.27
		c-4.02,1.17-6.49,4.35-6.51,8.45c-0.17,42.85-0.49,85.7-0.31,128.55c0.04,9.92-1.26,10.28,9.99,10.3
		c16.47,0.02,32.97,0.45,49.41-0.29c12.5-0.56,23.41-5.48,30.41-16.67c3.46-5.53,6.63-11.24,9.92-16.87
		c1.05-1.79,2.07-3.59,3.34-5.78c7.55,1.44,15.24,2.9,22.59,4.3c-0.7,1.92-1.35,3.7-2.01,5.49c-4.15,11.32-8.28,22.64-12.45,33.95
		c-2.57,6.97-5.36,13.87-7.75,20.9c-0.92,2.7-2.58,2.77-4.82,2.76c-37.72-0.04-75.44-0.03-113.16-0.03c-20.48,0-40.97,0-61.45,0
		c-1.22,0-2.44,0-3.83,0c0-6.95,0-13.65,0-21.01c6.58,0,13.17,0,19.75-0.01c0.5,0,1-0.07,1.49-0.12c5.03-0.51,7.85-2.93,8.53-7.71
		c0.42-2.93,0.63-5.92,0.63-8.88c0.04-40.61,0.07-81.22-0.03-121.83c-0.01-4.26-0.24-8.73-1.57-12.69c-0.64-1.9-3.99-3.71-6.32-4.03
		c-5.41-0.74-10.94-0.55-16.42-0.71c-1.97-0.06-3.94-0.01-6.07-0.01c0-7.07,0-13.87,0-21c38.47,0,76.78,0,115.09,0
		C762.69,69.33,762.74,76.28,762.8,83.24z M840.96,203.75c-3.5-1.97-4.92-1.18-6.63,1.81c-3.59,6.28-7.59,12.38-12.03,18.09
		c-8.19,10.54-19.47,15.68-32.6,16.32c-13.58,0.66-27.2,0.84-40.8,0.94c-6.85,0.05-13.72-0.38-20.56-0.86
		c-3.64-0.25-6.97-1.73-8.15-5.54c-1.11-3.58-2.32-7.34-2.34-11.03c-0.16-41.12-0.11-82.24-0.09-123.37c0-2.12,0.03-4.25,0.2-6.37
		c0.66-7.95,4.43-13.85,12.38-15.67c6.12-1.4,12.51-1.76,18.8-2.28c4.08-0.34,4.3-0.35,3.65-4.98c-31.76,0-63.55,0-95.44,0
		c0,1.71,0,3.22,0,4.89c4.19,0,8.06-0.23,11.91,0.05c9.49,0.68,17.09,4.79,17.77,15.33c0.31,4.86,0.69,9.72,0.7,14.58
		c0.06,37.37,0.06,74.75,0,112.12c-0.01,4.86-0.34,9.73-0.73,14.58c-0.49,5.92-3.32,10.59-9,12.51c-4.4,1.49-9.16,1.99-13.8,2.67
		c-2.27,0.33-4.62,0.06-7.19,0.06c0.09,1.82,0.15,3.01,0.22,4.63c1.71,0,3.17,0,4.63,0c47.35,0,94.71-0.01,142.06,0.01
		c4.87,0,9.74,0.07,14.6,0.23c3.29,0.11,4.96-1.76,5.94-4.54c2.45-6.88,4.86-13.78,7.28-20.67c0.33-0.94,0.55-1.93,0.92-2.85
		C835.4,217.55,838.16,210.7,840.96,203.75z"/>
	<path class="st4" d="M194.51,96.76c0.26,1.13,0.75,2.26,0.75,3.39c0.04,40.99,0.04,81.98,0,122.96c0,1.13-0.49,2.26-0.75,3.39
		c-0.24-1.15-0.68-2.3-0.68-3.45c-0.04-40.95-0.04-81.9,0-122.84C193.83,99.05,194.27,97.91,194.51,96.76z"/>
	<path class="st4" d="M243.97,225.01c-0.23-0.88-0.66-1.77-0.66-2.65c-0.04-14.59-0.06-29.19,0.04-43.78
		c0.01-0.94,0.98-1.87,1.51-2.8c-0.03,15.02-0.04,30.04-0.12,45.06C244.73,222.23,244.24,223.62,243.97,225.01z"/>
	<path class="st4" d="M762.8,83.24c-0.06-6.95-0.11-13.9-0.17-20.85c0.56,0.73,1.6,1.46,1.62,2.21c0.14,5.55,0.12,11.1,0.01,16.65
		C764.24,81.92,763.31,82.57,762.8,83.24z"/>
	<path class="st4" d="M546.97,127.29c-0.48-0.11-0.95-0.22-1.43-0.33c0.47-0.3,0.93-0.6,1.4-0.9
		C546.95,126.47,546.96,126.88,546.97,127.29z"/>
	<path class="st5" d="M396.06,241.71c0.3,0.18,0.6,0.36,0.9,0.54C396.66,242.07,396.36,241.89,396.06,241.71z"/>
	<path class="st6" d="M827.16,1043.77c8.9-7.2,17.83-14.36,26.67-21.62c7.17-5.88,14.21-11.91,21.35-17.83
		c11.89-9.86,23.8-19.7,35.72-29.53c9.82-8.1,19.63-16.19,29.48-24.25c12.33-10.09,24.74-20.08,37.04-30.21
		c9.26-7.62,18.36-15.45,27.63-23.06c10.49-8.62,21.14-17.05,31.63-25.67c9.17-7.53,18.17-15.28,27.34-22.82
		c8.96-7.37,18.06-14.56,27.04-21.91c5.55-4.54,10.94-9.28,16.48-13.83c9.15-7.53,18.4-14.95,27.55-22.47
		c7.45-6.13,14.8-12.38,22.25-18.51c8.97-7.38,18.01-14.68,26.99-22.04c5.74-4.7,11.44-9.46,17.15-14.19
		c9.14-7.57,18.27-15.14,27.41-22.69c5.81-4.8,11.63-9.58,17.44-14.37c8.96-7.38,17.92-14.77,26.89-22.15
		c5.91-4.87,11.84-9.72,17.76-14.57c7.64-6.26,15.3-12.49,22.94-18.76c6.88-5.65,13.72-11.35,20.6-16.99
		c7.83-6.42,15.7-12.79,23.53-19.22c7.07-5.81,14.07-11.7,21.14-17.51c11.17-9.17,22.4-18.27,33.55-27.47
		c5.72-4.72,11.34-9.56,16.98-14.38c4.07-3.48,8.12-5.76,14.11-5.74c106.71,0.25,213.42,0.17,320.12,0.22c1.75,0,3.51,0.59,5.26,0.9
		c-1.06,1.24-1.97,2.67-3.21,3.69c-10.78,8.87-21.64,17.63-32.44,26.48c-7.27,5.95-14.44,12.02-21.71,17.98
		c-7.63,6.26-15.34,12.43-22.98,18.69c-5.65,4.62-11.21,9.36-16.86,13.97c-5.73,4.68-11.57,9.24-17.29,13.94
		c-5.73,4.71-11.34,9.58-17.07,14.28c-7.54,6.19-15.18,12.26-22.73,18.43c-5.56,4.54-11.04,9.18-16.59,13.72
		c-7.83,6.41-15.73,12.75-23.55,19.18c-5.54,4.56-10.96,9.26-16.5,13.82c-7.63,6.27-15.34,12.44-22.98,18.69
		c-5.56,4.54-11.06,9.15-16.59,13.72c-8.95,7.39-17.91,14.79-26.88,22.17c-5.92,4.87-11.86,9.7-17.79,14.55
		c-9.28,7.58-18.58,15.14-27.83,22.75c-7.45,6.13-14.79,12.38-22.26,18.49c-7.36,6.02-14.84,11.88-22.2,17.89
		c-5.75,4.69-11.38,9.54-17.11,14.26c-5.62,4.63-11.3,9.19-16.95,13.8c-5.55,4.53-11.06,9.1-16.62,13.63
		c-7.85,6.4-15.76,12.73-23.58,19.16c-5.54,4.56-10.94,9.28-16.48,13.84c-7.73,6.35-15.56,12.57-23.29,18.92
		c-7.45,6.13-14.78,12.39-22.22,18.52c-8.87,7.3-17.81,14.52-26.7,21.8c-7.36,6.03-14.68,12.11-22.05,18.12
		c-7.46,6.08-15.02,12.05-22.46,18.15c-5.74,4.71-11.36,9.56-17.05,14.33c-5.69,4.76-11.31,9.63-17.19,14.15
		c-1.39,1.07-3.73,1.24-5.63,1.24c-103.58,0.06-207.17,0.05-310.75,0.05c-4.12,0-8.25,0.05-12.37-0.03
		c-1.3-0.02-2.59-0.38-3.88-0.59C827.32,1044.51,827.24,1044.14,827.16,1043.77z"/>
	<path class="st7" d="M827.39,31.36c1.73-0.2,3.46-0.58,5.19-0.58c56.22-0.03,112.44-0.03,168.66-0.03c50.6,0,101.2,0.07,151.8-0.11
		c4.9-0.02,8.78,1.08,12.45,4.22c9.03,7.74,18.18,15.33,27.36,22.89c10.51,8.64,21.13,17.14,31.64,25.78
		c5.84,4.8,11.47,9.86,17.32,14.64c10.72,8.75,21.56,17.34,32.29,26.09c5.57,4.54,10.97,9.29,16.48,13.89
		c7.42,6.19,14.88,12.34,22.33,18.5c5.82,4.81,11.63,9.63,17.49,14.4c11.04,8.99,22.15,17.89,33.15,26.92
		c8.9,7.3,17.66,14.79,26.56,22.11c10.8,8.88,21.73,17.61,32.52,26.51c10.71,8.82,21.27,17.82,31.97,26.64
		c8.98,7.39,18.13,14.58,27.1,21.98c7.65,6.31,15.09,12.87,22.73,19.19c9.16,7.58,18.46,14.98,27.65,22.52
		c8.8,7.22,17.53,14.54,26.29,21.8c11.82,9.79,23.64,19.59,35.48,29.35c9.55,7.87,19.11,15.71,28.7,23.52
		c11.04,8.99,22.15,17.89,33.15,26.92c8.62,7.07,17.07,14.34,25.68,21.42c11.19,9.2,22.5,18.23,33.68,27.44
		c10.8,8.9,21.47,17.96,32.23,26.91c6.95,5.78,13.96,11.47,20.92,17.23c0.43,0.36,0.72,0.88,1.66,2.03
		c-2.15,0.23-3.62,0.53-5.09,0.53c-30.61,0.03-61.22,0.02-91.83,0.02c-74.96,0-149.92-0.14-224.88,0.21
		c-7.73,0.04-13.03-2.79-18.48-7.42c-10.74-9.14-21.85-17.85-32.76-26.78c-7.18-5.89-14.26-11.9-21.44-17.8
		c-7.65-6.28-15.4-12.44-23.05-18.72c-5.84-4.79-11.57-9.71-17.39-14.53c-5.25-4.35-10.56-8.63-15.84-12.95
		c-6.03-4.94-12.02-9.91-18.06-14.83c-7.58-6.17-15.2-12.29-22.76-18.47c-7.29-5.96-14.51-12.01-21.79-17.98
		c-7.85-6.43-15.76-12.78-23.59-19.23c-5.64-4.65-11.15-9.46-16.8-14.1c-7.26-5.97-14.62-11.8-21.9-17.75
		c-7.48-6.12-14.88-12.33-22.37-18.45c-9-7.37-18.08-14.65-27.08-22.02c-7.47-6.13-14.84-12.38-22.31-18.51
		c-7.55-6.2-15.2-12.29-22.76-18.48c-5.56-4.56-11.01-9.24-16.56-13.82c-10.7-8.82-21.43-17.61-32.16-26.4
		c-7.27-5.96-14.54-11.92-21.83-17.86c-7.76-6.33-15.55-12.62-23.29-18.97c-5.75-4.72-11.4-9.55-17.15-14.27
		c-5.55-4.55-11.21-8.97-16.77-13.52c-5.74-4.71-11.38-9.55-17.12-14.25c-7.65-6.27-15.39-12.45-23.04-18.72
		c-7.38-6.05-14.67-12.21-22.04-18.26c-7.64-6.28-15.36-12.47-23-18.75c-5.65-4.64-11.19-9.41-16.83-14.05
		c-7.26-5.97-14.61-11.85-21.88-17.81c-6.95-5.7-13.86-11.46-20.79-17.19C827.3,32.04,827.35,31.7,827.39,31.36z"/>
	<path class="st7" d="M571.86,308.03c1.58,0,3.17,0,4.75,0c106.82,0,213.65,0.02,320.47-0.09c4.31,0,7.88,0.75,11.18,3.6
		c7.23,6.23,14.6,12.3,21.97,18.36c8.99,7.39,18.09,14.65,27.07,22.05c7.55,6.23,14.97,12.63,22.51,18.87
		c7.14,5.91,14.39,11.7,21.56,17.57c7.47,6.12,14.91,12.28,22.35,18.43c3.52,2.9,7.01,5.83,10.87,9.03
		c-6.34,5.15-12.4,10.03-18.4,14.98c-7.54,6.23-15.01,12.55-22.55,18.78c-7.16,5.91-14.38,11.75-21.57,17.64
		c-7.56,6.2-15.1,12.43-22.67,18.63c-9.01,7.37-18.05,14.68-27.04,22.07c-5.64,4.64-11.21,9.38-16.82,14.06
		c-7.41,6.18-14.82,12.37-22.26,18.52c-4.48,3.7-9.08,7.24-13.5,11c-1.47,1.26-2.41,1.66-4.1,0.25
		c-13.51-11.26-27.06-22.46-40.66-33.6c-13.98-11.44-28.1-22.73-42.06-34.19c-12.45-10.22-24.71-20.66-37.16-30.87
		c-12.24-10.04-24.66-19.87-36.92-29.87c-7.2-5.88-14.21-11.99-21.4-17.88c-12.55-10.27-25.2-20.42-37.75-30.68
		c-7.48-6.12-14.82-12.41-22.28-18.55c-8.88-7.3-17.85-14.5-26.75-21.77c-8.83-7.21-17.64-14.44-26.41-21.72
		c-1.16-0.96-2.01-2.28-3.01-3.44C571.48,308.82,571.67,308.43,571.86,308.03z"/>
	<path class="st6" d="M872.61,560.17c13.96-11.35,27.14-21.97,40.21-32.72c10.89-8.96,21.6-18.13,32.48-27.09
		c10.58-8.72,21.32-17.24,31.92-25.93c9.07-7.45,18.01-15.07,27.07-22.54c7.43-6.12,14.98-12.1,22.44-18.19
		c3.64-2.97,7.18-6.07,10.81-9.05c6.1-5,12.25-9.95,18.36-14.93c5.74-4.68,11.47-9.37,17.2-14.06c9.08-7.42,18.18-14.82,27.24-22.27
		c5.73-4.71,11.36-9.54,17.08-14.25c7.62-6.28,15.3-12.49,22.94-18.75c7.07-5.8,14.25-11.49,21.11-17.54
		c2.4-2.11,3.66-2.23,6.14-0.11c9.03,7.68,18.34,15.02,27.51,22.54c5.45,4.47,10.78,9.08,16.23,13.54
		c7.54,6.17,15.18,12.23,22.73,18.39c5.56,4.53,11.02,9.19,16.57,13.73c7.74,6.34,15.55,12.59,23.27,18.94
		c5.54,4.55,10.99,9.22,16.51,13.81c5.6,4.67,11.21,9.33,16.85,13.95c6.01,4.93,12.06,9.81,18.09,14.72
		c1.91,1.55,3.81,3.12,6.08,4.97c-2.87,2.54-5.44,4.98-8.17,7.21c-7.55,6.18-15.17,12.26-22.74,18.41
		c-9.2,7.47-18.42,14.93-27.57,22.46c-7.54,6.2-14.97,12.54-22.5,18.76c-7.05,5.82-14.15,11.57-21.24,17.34
		c-5.65,4.59-11.59,8.88-16.91,13.83c-3.97,3.69-8.03,5.53-13.55,5.44c-16.99-0.27-33.98-0.1-50.97-0.1
		c-61.97,0-123.94,0.02-185.91-0.01c-27.48-0.01-54.97-0.1-82.45-0.17C877.49,560.52,875.55,560.33,872.61,560.17z"/>
	<path class="st6" d="M870,563.09c-0.43,5.46,4.39,6.53,7.12,9.06c5.98,5.52,12.47,10.49,18.8,15.63
		c7.28,5.92,14.62,11.75,21.9,17.68c7.09,5.78,14.11,11.65,21.2,17.44c7.65,6.25,15.38,12.41,23.02,18.69
		c7.36,6.04,14.6,12.22,21.96,18.26c9.16,7.51,18.42,14.91,27.57,22.43c5.93,4.87,11.73,9.89,17.61,14.81
		c1.6,1.34,3.29,2.58,5.37,4.2c-2.72,2.43-5.17,4.77-7.78,6.92c-9.44,7.77-18.93,15.49-28.42,23.2
		c-12.56,10.21-25.18,20.34-37.69,30.6c-10.8,8.86-21.49,17.85-32.24,26.78c-3.14,2.6-6.18,5.34-9.51,7.68
		c-1.17,0.82-3.04,0.86-4.59,0.86c-38.11,0.04-76.22,0.03-114.33,0.03c-69.22,0-138.44,0-207.67,0c-1.57,0-3.15,0-4.72,0
		c-0.19-0.34-0.37-0.68-0.56-1.02c0.93-1.13,1.72-2.45,2.83-3.37c7.79-6.47,15.63-12.89,23.48-19.28
		c9.01-7.33,18.09-14.56,27.06-21.93c5.92-4.87,11.66-9.97,17.55-14.88c7.12-5.93,14.31-11.77,21.48-17.64
		c7.54-6.19,15.08-12.39,22.64-18.56c9.08-7.42,18.2-14.79,27.26-22.24c5.73-4.71,11.34-9.57,17.07-14.28
		c7.63-6.28,15.33-12.47,22.98-18.73c6.89-5.63,13.74-11.31,20.61-16.96c8.11-6.66,16.25-13.28,24.34-19.97
		c6.95-5.75,13.84-11.58,20.78-17.35c10.55-8.77,21.11-17.53,31.69-26.26C867.64,564.2,868.71,563.81,870,563.09z"/>
	<path class="st7" d="M1305.56,638.93c-7.56,6.19-15.03,12.27-22.45,18.4c-7.54,6.23-15.01,12.54-22.54,18.77
		c-7.16,5.92-14.38,11.76-21.56,17.66c-7.66,6.28-15.28,12.6-22.94,18.88c-7.08,5.81-14.21,11.56-21.28,17.39
		c-7.55,6.22-15.04,12.51-22.58,18.73c-8.98,7.41-17.98,14.78-26.99,22.16c-0.28,0.23-0.66,0.35-0.95,0.58
		c-5.67,4.48-5.59,4.38-11.15-0.21c-14.51-11.99-29.11-23.85-43.63-35.83c-9.27-7.64-18.37-15.49-27.67-23.08
		c-10.35-8.45-20.91-16.64-31.27-25.09c-7.49-6.11-14.74-12.5-22.19-18.66c-10.49-8.67-21.07-17.24-31.61-25.86
		c-7.28-5.95-14.54-11.92-21.82-17.87c-7.77-6.33-15.58-12.6-23.32-18.97c-7.46-6.14-14.82-12.4-22.28-18.55
		c-7.42-6.12-14.91-12.16-23.16-18.88c2.41,0,3.84,0,5.28,0c103.81,0,207.62,0,311.42,0.01c3.78,0,7.47,0.06,10.45-3.01
		c0.53-0.55,2.7-0.32,3.49,0.32c8.64,7.02,17.12,14.25,25.73,21.32c8.89,7.3,17.9,14.47,26.81,21.75
		c7.19,5.88,14.33,11.83,21.48,17.76C1295.59,630.61,1300.33,634.58,1305.56,638.93z"/>
	<path class="st8" d="M1221.94,558.91c5.56-4.65,10.88-9.16,16.26-13.58c5.87-4.83,11.79-9.59,17.7-14.37
		c7.73-6.26,15.48-12.48,23.18-18.77c5.52-4.52,10.94-9.18,16.46-13.7c7.79-6.37,15.67-12.62,23.44-19.01
		c5.61-4.61,11.22-9.22,16.6-14.09c2.1-1.91,3.28-2.04,5.53-0.14c9.02,7.58,18.29,14.85,27.4,22.34
		c7.51,6.17,14.85,12.54,22.36,18.71c7.2,5.91,14.54,11.64,21.76,17.53c5.42,4.42,10.73,8.97,16.23,13.58
		c-5.57,4.65-11.07,9.31-16.64,13.89c-7.3,6.01-14.65,11.97-21.97,17.95c-7.7,6.29-15.42,12.55-23.1,18.86
		c-5.7,4.69-11.32,9.49-17.02,14.17c-7.4,6.07-14.88,12.04-22.27,18.12c-4.37,3.59-8.76,7.19-12.91,11.02
		c-1.93,1.78-3.04,1.54-4.94-0.06c-7.33-6.15-14.89-12.03-22.28-18.11c-7.51-6.18-14.86-12.55-22.38-18.72
		c-7.2-5.92-14.57-11.63-21.77-17.55c-5.89-4.85-11.63-9.88-17.46-14.81C1224.89,561.14,1223.61,560.21,1221.94,558.91z"/>
	<path class="st9" d="M495.12,147.67c8.52,11.84,16.73,23.54,25.25,35.01c4.63,6.24,9.83,12.06,14.68,18.13
		c1.6,2.01,2.76,2.25,4.68,0.19c7.69-8.24,14.97-16.69,20.31-26.78c3.05-5.77,4.96-11.58,4.96-18.06c0-8.69-3.59-13.43-11.94-15.68
		c-0.71-0.19-1.43-0.34-2.26-0.54c0-1.37,0-2.68,0-4.2c21.9,0,43.59,0,65.65,0c0.06,1.33,0.12,2.63,0.18,4.11
		c-3.45,0.62-6.71,1.36-10,1.76c-8.18,1.01-13.83,5.95-18.36,12.19c-7.25,9.99-13.77,20.52-21.24,30.33
		c-6.85,9.01-14.55,17.38-21.86,26.04c-0.15,0.17-0.17,0.45-0.3,0.82c8.49,8.48,17.41,16.55,28.73,21.14
		c12.21,4.95,24.44,6.22,36.67-0.7c5.96-3.37,8.52-9.01,11.63-14.41c5.63,2.88,6.75,2.09,3.11,8.29c-2.12,3.6-3.61,7.59-5.84,11.11
		c-7.19,11.35-18.1,17.09-30.95,19.26c-16.52,2.79-31.67-1.36-45.49-10.44c-5.98-3.93-11.73-8.26-17.24-12.81
		c-2.2-1.81-3.59-1.32-5.5-0.14c-8.53,5.26-16.76,11.13-25.71,15.56c-15.42,7.63-32.04,9.73-49.15,8.24
		c-9.92-0.86-19.49-2.98-27.96-8.46c-9.26-5.98-16.76-13.16-18.91-24.9c-2.43-13.24,2.28-23.94,9.8-34.15
		c12.65-17.17,31.13-26.03,49.47-35.13c0.22-0.11,0.44-0.23,0.66-0.35c1.53-0.79,3.07-1.58,4.11-2.11
		c-3.08-7.65-5.95-15.22-9.16-22.65c-3.64-8.44-3.82-17.24-2.37-25.98c2.08-12.58,9.89-21.34,20.71-27.43
		c14-7.88,29.14-10.25,44.82-7.39c13.13,2.4,23.54,8.56,29.4,21.8c3.9,8.8,0.6,22.36-5.11,29.52c-9,11.29-21.76,17-34,23.51
		C503.01,144.28,499.22,145.79,495.12,147.67z M468.46,159.81c-1.15,0.36-2.03,0.51-2.78,0.9c-8.94,4.66-17.5,9.95-24.49,17.29
		c-4.97,5.22-8.88,11.29-10.5,18.46c-2.23,9.83-0.52,19.12,5.17,27.39c4.34,6.31,10.05,11.2,17.45,13.85
		c8.04,2.87,16.25,3.47,24.68,2.34c14.05-1.88,25.35-9.43,37-17.37C497.62,202.86,481.05,182.97,468.46,159.81z M490.21,139.09
		c10.95-4.91,21.38-9.69,29.52-18.34c5.34-5.68,8.92-12.04,9.63-19.94c0.66-7.33-1.62-13.64-6.94-18.46
		c-8.38-7.59-18.48-6.94-28.57-4.68c-5.9,1.32-10.06,5.56-13.07,10.4c-3.21,5.15-5.82,11.01-3.97,17.27
		c2.23,7.55,5.05,14.94,7.89,22.29C486.15,131.41,488.19,134.95,490.21,139.09z"/>
	<path class="st9" d="M234.88,225.86c0.08,2,0.09,4,0.26,5.99c0.9,10.69,6.61,14.25,17.91,15.58c3.8,0.45,7.69,0.07,11.74,0.07
		c0,1.77,0,3.08,0,4.71c-30.29,0-60.46,0-91.08,0c-0.08-1.47-0.16-2.76-0.27-4.7c3.86,0,7.45,0.06,11.03-0.01
		c6.08-0.12,11.78-1.9,15.71-6.5c2-2.34,2.59-6.08,3.23-9.3c0.55-2.78,0.36-5.72,0.36-8.6c0.02-40.99,0.02-81.98,0-122.96
		c0-2.5-0.16-4.99-0.21-7.49c-0.26-12.03-6.98-15.96-18.02-16.87c-3.82-0.31-7.69-0.05-11.8-0.05c0-1.72,0-3.15,0-4.72
		c0.44-0.12,0.9-0.37,1.37-0.37c30.48,0.02,60.96-0.18,91.43,0.21c12.69,0.16,25.42,1.09,37.74,4.75
		c12.29,3.65,22.6,10.43,29.92,20.89c3.7,5.28,6.63,11.38,5.84,18.44c-0.45,4.07,0.29,8.39-0.78,12.25
		c-2.64,9.53-8.24,17.19-16.37,23.07c-10.47,7.57-22.49,10.91-35.19,13.64c3.66,4.44,7.17,8.78,10.79,13.04
		c3.91,4.6,7.95,9.1,11.88,13.69c6.35,7.4,12.58,14.9,19.01,22.24c4.88,5.57,10.02,10.91,14.95,16.43
		c9.24,10.34,21.16,15.29,34.53,17.41c2.33,0.37,4.67,0.69,6.97,1.02c1.06,4.52,0.87,4.8-3.55,4.8
		c-16.24,0.01-32.48-0.05-48.72,0.05c-3.19,0.02-5.21-1.23-7.21-3.69c-5.93-7.26-12.2-14.23-18.28-21.36
		c-4.01-4.71-7.87-9.54-11.9-14.24c-5.77-6.74-11.67-13.37-17.45-20.11c-4.11-4.79-8.11-9.67-12.13-14.53
		c-2.29-2.77-4.52-5.58-6.83-8.34c-1.82-2.18-3.97-3.22-7.03-3.05c-5.85,0.32-11.73,0.11-17.6,0.12c-0.53,0.89-1.52,1.77-1.53,2.66
		c-0.09,17.59-0.09,35.18-0.01,52.77C233.59,223.82,234.43,224.84,234.88,225.86z M235.1,158.91c3.87,0.06,7.74,0.24,11.6,0.16
		c14.84-0.31,29.25-2.24,42.11-10.61c8.19-5.33,13.88-12.75,15.6-22.07c1.12-6.06,1.03-12.59-1.07-19.04
		c-3.41-10.51-10.33-17.42-19.88-21.82c-15.75-7.25-32.11-5.06-48.42-2.28c-0.5,0.94-1.44,1.88-1.44,2.82
		c-0.08,23.37-0.08,46.74,0,70.11C233.6,157.1,234.58,158.01,235.1,158.91z"/>
	<path class="st10" d="M508.7,151.48c11.25-6.65,21.91-12.95,32.73-19.35c0,4.59,0,9.8,0,15.35c3.14,0.37,5.77,0.9,8.42,0.95
		c3.3,0.07,5.05,2.13,5.22,4.78c0.41,6.37-0.32,12.53-4.21,18.1c-4.19,5.99-7.88,12.32-11.79,18.5c-0.52,0.01-1.04,0.03-1.56,0.04
		C527.89,177.03,518.27,164.22,508.7,151.48z"/>
	<path class="st11" d="M234.88,225.86c-0.45-1.02-1.29-2.04-1.29-3.06c-0.08-17.59-0.08-35.18,0.01-52.77c0-0.89,1-1.78,1.53-2.66
		c-0.03,17.89-0.07,35.77-0.11,53.66C235.01,222.64,234.93,224.25,234.88,225.86z"/>
	<path class="st7" d="M840.96,203.75c-2.79,6.95-5.55,13.8-8.29,20.65c-0.37,0.93-0.59,1.91-0.92,2.85
		c-2.42,6.89-4.83,13.79-7.28,20.67c-0.99,2.77-2.65,4.64-5.94,4.54c-4.86-0.16-9.73-0.22-14.6-0.23
		c-47.35-0.02-94.71-0.01-142.06-0.01c-1.46,0-2.93,0-4.63,0c-0.08-1.62-0.14-2.82-0.22-4.63c2.57,0,4.92,0.27,7.19-0.06
		c4.64-0.68,9.4-1.18,13.8-2.67c5.67-1.92,8.51-6.59,9-12.51c0.4-4.85,0.73-9.72,0.73-14.58c0.06-37.37,0.06-74.75,0-112.12
		c-0.01-4.86-0.39-9.72-0.7-14.58c-0.67-10.54-8.28-14.65-17.77-15.33c-3.84-0.28-7.72-0.05-11.91-0.05c0-1.67,0-3.17,0-4.89
		c31.89,0,63.68,0,95.44,0c0.65,4.64,0.43,4.64-3.65,4.98c-6.29,0.53-12.68,0.88-18.8,2.28c-7.95,1.82-11.72,7.73-12.38,15.67
		c-0.18,2.11-0.2,4.25-0.2,6.37c-0.01,41.12-0.07,82.25,0.09,123.37c0.01,3.68,1.23,7.44,2.34,11.03c1.18,3.81,4.51,5.29,8.15,5.54
		c6.84,0.47,13.71,0.91,20.56,0.86c13.6-0.11,27.22-0.28,40.8-0.94c13.12-0.64,24.41-5.78,32.6-16.32
		c4.44-5.71,8.45-11.81,12.03-18.09C836.04,202.58,837.46,201.78,840.96,203.75z"/>
	<path class="st12" d="M468.46,159.81c12.59,23.16,29.16,43.05,46.53,62.86c-11.65,7.94-22.95,15.49-37,17.37
		c-8.43,1.13-16.64,0.53-24.68-2.34c-7.4-2.64-13.11-7.53-17.45-13.85c-5.69-8.27-7.4-17.55-5.17-27.39
		c1.63-7.17,5.54-13.24,10.5-18.46c6.99-7.34,15.55-12.63,24.49-17.29C466.43,160.32,467.31,160.18,468.46,159.81z M462.78,171.3
		c-4.44,3.81-9.65,7.59-13.95,12.21c-3.36,3.61-6.65,7.94-8.11,12.53c-2.9,9.11-1.67,18.15,4.92,25.66
		c3.24,3.7,6.91,6.85,11.81,8.66c6.61,2.44,13.21,2.46,19.91,1.42c8.89-1.38,16.49-5.75,23.39-10.32
		C488.25,204.96,475.92,188.66,462.78,171.3z"/>
	<path class="st2" d="M490.21,139.09c-2.02-4.14-4.06-7.69-5.52-11.45c-2.84-7.35-5.66-14.74-7.89-22.29
		c-1.85-6.26,0.76-12.12,3.97-17.27c3.02-4.84,7.17-9.08,13.07-10.4c10.09-2.26,20.19-2.91,28.57,4.68
		c5.32,4.82,7.6,11.13,6.94,18.46c-0.71,7.9-4.29,14.26-9.63,19.94C511.59,129.41,501.17,134.18,490.21,139.09z M494.96,128.62
		c5.84-4.36,10.89-8.17,15.99-11.93c8.09-5.96,9.2-14.39,8-23.43c-0.22-1.67-2.03-3.17-3.19-4.68c-3.71-4.83-9.1-3.33-14.06-3.92
		c-9.1-1.08-18.1,12.36-15.23,20.94C488.9,112.89,491.77,120.03,494.96,128.62z"/>
	<path class="st13" d="M235.04,83.26c16.31-2.78,32.68-4.98,48.42,2.28c9.55,4.4,16.46,11.31,19.88,21.82
		c2.1,6.45,2.19,12.99,1.07,19.04c-1.72,9.31-7.41,16.74-15.6,22.07c-12.86,8.37-27.27,10.31-42.11,10.61
		c-3.86,0.08-7.73-0.1-11.6-0.16C235.08,133.7,235.06,108.48,235.04,83.26z M244.8,90.06c-0.51,0.96-1.45,1.91-1.46,2.88
		c-0.09,18.52-0.07,37.04-0.06,55.55c0,0.87,0.05,1.74,0.07,2.61c0.48-0.1,0.95-0.2,1.43-0.29c8.72,0.27,17.3-0.6,25.7-3.07
		c10.65-3.13,19.63-8.8,23.58-19.46c3.48-9.4,2.13-19.05-4.22-27.09c-4.29-5.44-10.06-8.93-17.19-10.62
		c-7.52-1.78-14.98-1.01-22.47-1.27C248.4,89.23,246.6,89.79,244.8,90.06z"/>
	<path class="st11" d="M235.04,83.26c0.02,25.22,0.04,50.44,0.06,75.65c-0.52-0.91-1.5-1.81-1.51-2.72
		c-0.08-23.37-0.08-46.74,0-70.11C233.6,85.14,234.54,84.2,235.04,83.26z"/>
	<path class="st8" d="M462.78,171.3c13.14,17.36,25.47,33.66,37.96,50.17c-6.9,4.57-14.5,8.94-23.39,10.32
		c-6.7,1.04-13.3,1.02-19.91-1.42c-4.91-1.81-8.57-4.96-11.81-8.66c-6.59-7.51-7.82-16.55-4.92-25.66c1.46-4.6,4.75-8.92,8.11-12.53
		C453.13,178.89,458.34,175.11,462.78,171.3z"/>
	<path class="st10" d="M494.96,128.62c-3.19-8.59-6.06-15.73-8.5-23.01c-2.87-8.58,6.13-22.02,15.23-20.94
		c4.96,0.59,10.35-0.91,14.06,3.92c1.16,1.51,2.96,3,3.19,4.68c1.2,9.04,0.1,17.47-8,23.43
		C505.85,120.44,500.8,124.26,494.96,128.62z"/>
	<path class="st8" d="M244.8,90.06c1.8-0.27,3.6-0.84,5.39-0.77c7.49,0.26,14.95-0.51,22.47,1.27c7.12,1.69,12.89,5.19,17.19,10.62
		c6.35,8.04,7.7,17.7,4.22,27.09c-3.95,10.66-12.93,16.33-23.58,19.46c-8.4,2.47-16.98,3.34-25.7,3.07
		C244.79,130.56,244.79,110.31,244.8,90.06z"/>
	<path class="st4" d="M244.8,90.06c-0.01,20.25-0.01,40.49-0.02,60.74c-0.48,0.1-0.95,0.2-1.43,0.29c-0.03-0.87-0.07-1.74-0.07-2.61
		c0-18.52-0.03-37.04,0.06-55.55C243.35,91.98,244.29,91.02,244.8,90.06z"/>
</g>
</svg>
